<svg width="2822" height="903" viewBox="0 0 2822 903" fill="none" xmlns="http://www.w3.org/2000/svg"><path fill-rule="evenodd" clip-rule="evenodd" d="m19.941 877.542 769.75-425.972L19.941 25.474v852.068Zm269.22-703.006-.351.713c-26.776 70.38-31.046 118.844 27.489 174.296 5.924-41.351 17.534-51.658 51.547-76.779-24.771 44.783-26.186 75.953-7.113 112.921 32.587 63.267 88.166 142.538 45.148 217.663-9.594 16.706-24.884 31.758-47.753 45.621-25.36 14.214-44.785 22.392-58.773 35.077-12.799 11.258-21.215 26.186-25.836 52.371-70.496-88.875-16.944-116.952 11.259-170.388 17.069-32.11 24.884-73.472-8.767-142.901l-11.734-23.943-.465-1.064c-33.186-66.348-43.845-104.981-25.246-149.175 1.665-4.032 3.669-8.053 5.81-12.21 9.831-18.484 24.522-38.508 44.785-62.202Zm-98.699 338.285c41.115-19.424 13.977-106.634 15.279-180.106.238-16.468 1.903-32.223 6.162-46.324 2.605 29.98 3.556 42.065 11.734 67.424 5.335 16.468 13.513 33.05 22.279 49.291 5.335 10.069 10.783 19.424 15.88 28.666a323.206 323.206 0 0 1 8.053 15.415c9.832 19.9 16.594 39.448 15.167 61.964-1.892 30.094-15.042 47.876-28.317 66.36-16.231 22.391-32.824 45.972-30.219 93.836-67.064-24.521-106.288-58.771-104.985-136.615.827-44.432 7.351-80.097 59.249-115.174-19.312 24.883-27.139 42.778-23.582 67.061 3.194 21.69 14.453 30.105 24.884 30.105 2.956 0 5.811-.714 8.416-1.903Zm667.679-280.846v151.23h110.594v-22.913h-85.146v-41.711h73.95v-22.645h-73.95V254.9H966.2v-22.925H858.141Zm191.469-2.126c-10.8 0-20.39 1.732-28.79 5.324-8.26 3.464-14.78 8.533-19.46 14.927-4.52 6.393-6.787 13.729-6.787 22.25 0 9.463 2.127 16.926 6.657 22.785 4.54 5.731 10 9.998 16.13 12.927 6.39 2.93 14.79 5.859 25.18 8.788 7.59 2.407 13.59 4.407 18.12 6.266 4.4 1.733 8.13 4.127 11.06 7.196 2.93 3.07 4.53 6.929 4.53 11.73 0 5.859-2.53 10.52-7.59 13.985-5.07 3.337-12 4.929-20.78 4.929-8.14 0-16.93-1.86-26.13-5.732-9.05-4.126-17.45-9.59-25.05-16.646l-11.056 21.983c7.999 7.463 17.326 13.462 28.106 17.716 10.81 4.407 22 6.534 33.72 6.534 11.07 0 20.93-1.86 29.59-5.464 8.66-3.592 15.32-8.661 20.11-15.322 4.94-6.801 7.33-14.659 7.33-23.587 0-9.463-2.26-17.054-6.92-22.913-4.4-5.871-9.86-10.265-16.4-13.195-6.39-2.929-14.66-6.126-24.91-9.195-7.73-2.535-13.73-4.534-18.12-6.266-4.27-1.732-7.86-4.127-10.81-7.183-2.92-3.07-4.25-6.802-4.25-11.463 0-5.196 2.13-9.196 6.66-11.858 4.4-2.929 10.39-4.406 17.99-4.406 6.12 0 13.19 1.21 20.92 3.464a101.418 101.418 0 0 1 23.31 10.66l10.66-22.517c-7.46-4.789-15.72-8.521-24.91-11.45-9.2-2.802-18.52-4.267-28.11-4.267Zm151.49.394c-14.66 0-28.12 3.337-40.38 10.125-12.12 6.802-21.72 16.124-28.78 27.855-6.93 11.857-10.39 24.912-10.39 39.176 0 14.392 3.46 27.574 10.39 39.304 6.93 11.857 16.39 21.18 28.38 28.109 12.12 6.928 25.46 10.393 39.98 10.393 10.52 0 20.91-2.255 31.3-6.661 10.4-4.662 19.47-10.788 27.33-18.646l-15.2-16.799c-5.72 5.604-12.39 9.998-19.84 13.335-7.34 3.196-14.8 4.788-22.27 4.788-9.98 0-19.05-2.394-27.31-7.196-8.12-4.788-14.78-11.449-19.58-19.588-4.81-8.393-7.2-17.448-7.2-27.306s2.39-18.926 7.2-27.179c4.66-8.406 11.19-14.927 19.44-19.729 8.27-4.661 17.47-7.056 27.45-7.056 7.61 0 15.2 1.732 22.66 5.197 7.47 3.464 13.99 8.125 19.45 14.252l14.93-18.659c-7.33-7.323-16.13-13.055-26.38-17.181-10.13-4.394-20.52-6.534-31.18-6.534Zm80.72 1.732v89.281c0 13.055 2.54 24.517 7.73 34.108 5.34 9.59 12.93 16.926 22.79 22.122 9.86 5.197 21.59 7.718 34.91 7.718 13.32 0 24.79-2.521 34.64-7.718 9.74-5.196 17.33-12.532 22.52-22.122 5.2-9.591 7.73-21.053 7.73-34.108v-89.281h-25.44v89.281c0 12.787-3.61 22.785-10.66 29.981-7.07 7.196-16.66 10.788-28.79 10.788-12.25 0-21.98-3.592-29.18-10.788-7.2-7.336-10.79-17.321-10.79-29.981v-89.281h-25.46Zm167.22 0v151.23h110.73v-22.913h-85.29v-41.711h73.95v-22.645h-73.95V254.9h82.62v-22.925h-108.06Zm141.75 0v151.23h91.02v-23.04h-65.43v-128.19h-25.59Zm176.02 27.192 28.51 67.285h-57.02l28.51-67.285Zm-12.26-27.192-66.89 151.23h26.65l14.39-34.108h76.36l14.52 34.108h27.18l-66.1-151.23h-26.11Zm239.02 22.925c9.73 0 18.66 2.267 26.79 6.929 8 4.394 14.39 10.66 19.05 18.786 4.66 7.998 7.07 17.181 7.07 27.179 0 10.125-2.27 19.193-6.93 27.319-4.41 7.858-10.66 14.124-18.53 18.518-7.99 4.534-16.79 6.661-26.38 6.661h-37.18V254.9h36.11Zm-61.7-22.925v151.23h61.43c15.2 0 28.66-3.197 40.65-9.718 11.99-6.534 21.32-15.589 28.12-26.924 6.79-11.59 10.13-24.517 10.13-38.897 0-14.392-3.34-27.459-10.13-38.909-6.66-11.59-16-20.518-27.86-27.051-11.85-6.534-25.32-9.731-40.23-9.731h-62.11Zm167.62 0v151.23h110.73v-22.913h-85.15v-41.711h73.83v-22.645h-73.83V254.9h82.49v-22.925h-108.07ZM927.306 523.347l30.237 74.622h-60.627l30.39-74.622Zm-21.054-45.303-83.413 192.139h44.63l15.194-37.304h88.878l15.055 37.304h46.374l-81.948-192.139h-44.77Zm111.368 0 75.42 192.139h44.77l76.35-192.139h-44.77l-52.76 144.837-52.38-144.837h-46.63Zm217.84 0v192.139h43.31V478.044h-43.31Zm64.62 0 75.42 192.139h44.77l76.21-192.139h-44.63l-52.76 144.837-52.38-144.837h-46.63Zm285.94 45.303 30.11 74.622h-60.63l30.52-74.622Zm-21.19-45.303-83.42 192.139h44.77l15.07-37.304h88.88l15.18 37.304h46.37l-82.08-192.139h-44.77Zm146.95 0v192.139h39.04V540.401l54.89 110.194h27.99l54.62-110.194v129.782h38.92V478.044h-47.97l-59.29 118.052-59.84-118.052h-48.36Zm257.8 0v192.139h43.45V478.044h-43.45Zm85.81 0v192.139h149.24v-35.98H2098.7v-42.501h92.47v-35.979h-92.47v-41.699h102.86v-35.98h-146.17Zm183.21 0v192.139h41.43V546.667l93 123.516h39.59V478.044h-41.18v124.051l-93.27-124.051h-39.57Zm197.05 0v36.783h58.48v155.356h43.31V514.827h58.77v-36.783h-160.56Zm263.81 34.91c10.66 0 20.38 2.662 29.05 8.126 9.06 5.336 16.11 12.659 21.18 21.995 5.33 9.323 8 19.588 8 30.771 0 11.335-2.67 21.728-8 31.318-5.07 9.323-12.12 16.659-21.18 22.11-8.67 5.337-18.39 7.998-29.05 7.998-10.53 0-20.52-2.802-29.59-8.253-9.05-5.463-16.25-12.927-21.72-22.262-5.32-9.323-7.99-19.576-7.99-30.911 0-11.183 2.67-21.448 7.99-30.771 5.34-9.336 12.53-16.659 21.72-21.995 9.07-5.464 19.06-8.126 29.59-8.126Zm-.54-37.967c-19.32 0-36.91 4.394-52.62 12.915-15.59 8.66-27.99 20.531-37.06 35.712-9.05 14.927-13.45 31.713-13.45 50.232 0 18.658 4.4 35.585 13.45 50.766 9.07 14.927 21.59 26.925 37.32 35.585 15.72 8.661 33.18 12.915 52.36 12.915 19.19 0 36.65-4.254 52.36-12.915 15.73-8.66 28.13-20.658 37.06-35.852 9.19-15.182 13.71-32.108 13.71-50.499 0-18.519-4.52-35.305-13.71-50.232-8.93-15.181-21.33-27.052-37.06-35.712-15.71-8.521-33.17-12.915-52.36-12.915Z" fill="#F14B56"/></svg>